<?xml version="1.0" standalone="no"?>
<!DOCTYPE svg PUBLIC "-//W3C//DTD SVG 20010904//EN"
 "http://www.w3.org/TR/2001/REC-SVG-20010904/DTD/svg10.dtd">
<svg version="1.0" xmlns="http://www.w3.org/2000/svg"
 width="225.000000pt" height="225.000000pt" viewBox="0 0 225.000000 225.000000"
 preserveAspectRatio="xMidYMid meet">
<metadata>
Created by potrace 1.14, written by Peter Selinger 2001-2017
</metadata>
<g transform="translate(0.000000,225.000000) scale(0.100000,-0.100000)"
fill="#000000" stroke="none">
<path d="M0 1125 l0 -1125 1125 0 1125 0 0 1125 0 1125 -1125 0 -1125 0 0
-1125z m2025 283 c-55 -233 -116 -462 -128 -482 -9 -13 -33 -37 -54 -53 l-36
-28 -741 -3 c-726 -2 -742 -2 -774 18 -39 24 -72 75 -72 113 0 15 12 75 26
132 l26 104 111 3 111 3 23 95 c13 52 26 101 28 108 3 9 161 12 745 12 l740 0
-5 -22z m-40 -558 c0 -18 -6 -26 -23 -28 -24 -4 -38 18 -28 44 3 9 15 14 28
12 17 -2 23 -10 23 -28z"/>
<path d="M567 1393 c-2 -5 -15 -52 -28 -105 l-23 -97 -110 -3 -111 -3 -22 -80
c-32 -121 -30 -160 11 -201 l34 -34 731 0 c609 0 737 2 759 14 61 32 71 55
128 278 29 117 54 219 54 226 0 9 -148 12 -709 12 -391 0 -712 -3 -714 -7z
m205 -48 c6 -7 -78 -349 -93 -377 -21 -40 -61 -49 -205 -46 -134 3 -137 4
-156 29 -19 25 -19 27 0 100 l18 74 78 3 78 3 -6 -27 c-21 -83 -21 -84 12 -84
35 0 29 -14 77 180 39 159 32 150 118 150 41 0 76 -2 79 -5z m292 -32 c3 -21
8 -69 12 -106 l7 -69 59 106 59 106 124 0 c112 0 125 -2 125 -17 0 -10 -22
-106 -48 -213 l-49 -195 -83 -3 -83 -3 6 33 c3 18 15 68 25 111 11 42 18 77
17 77 -2 0 -31 -49 -65 -110 l-62 -110 -63 0 -62 0 -9 113 -9 112 -29 -112
-28 -113 -85 0 c-76 0 -84 2 -79 18 3 9 26 100 51 202 25 102 47 191 50 198 3
8 34 12 109 12 l104 0 6 -37z m620 29 c3 -4 -13 -78 -34 -163 -22 -84 -40
-155 -40 -156 0 -2 15 -3 33 -3 l34 0 39 163 40 162 82 3 c57 2 82 -1 82 -9 0
-6 -19 -88 -41 -183 -38 -153 -45 -174 -74 -203 l-33 -33 -144 0 c-163 0 -188
8 -188 61 0 28 75 343 86 361 7 10 151 10 158 0z"/>
<path d="M1944 850 c2 -21 30 -19 32 3 1 12 1 13 -3 2 -5 -18 -20 -20 -26 -2
-2 7 -3 6 -3 -3z"/>
</g>
</svg>
